<svg width="34" height="30" viewBox="0 0 34 30" fill="none" xmlns="http://www.w3.org/2000/svg">
    <path d="M5.92614 30C5.57823 30 5.23033 29.918 4.89823 29.7705C3.66474 29.1805 3.12707 27.6726 3.69637 26.3942L14.7661 1.48106C15.3354 0.20263 16.7903 -0.354637 18.0238 0.23541C19.2573 0.825457 19.795 2.33335 19.2257 3.61179L8.15591 28.5249C7.74474 29.4591 6.85916 30 5.92614 30Z" fill="url(#paint0_linear)"/>
    <path d="M17 20.1658C8.23907 20.1658 4.04837 15.2979 2.07163 11.2167C0.015814 6.97169 0 2.72663 0 2.54634C0 1.13678 1.09116 0.00585938 2.45116 0.00585938C3.79535 0.00585938 4.90233 1.13678 4.90233 2.54634C4.90233 2.62829 4.94977 5.92272 6.53116 9.10241C8.50791 13.0852 12.0344 15.1012 17 15.1012C21.9656 15.1012 25.4921 13.0852 27.4688 9.10241C29.0502 5.90633 29.0977 2.57912 29.0977 2.54634C29.0977 1.13678 30.1888 0.00585938 31.5488 0.00585938C32.9088 0.00585938 34 1.15317 34 2.54634C34 2.72663 33.9842 6.97169 31.9284 11.2167C29.9516 15.2979 25.7609 20.1658 17 20.1658Z" fill="#E5E5E5"/>
    <path d="M28.0696 30C27.1366 30 26.251 29.4591 25.8399 28.5249L14.7701 3.61179C14.2008 2.33335 14.7385 0.825457 15.972 0.23541C17.2055 -0.354637 18.6603 0.20263 19.2296 1.48106L30.2994 26.3942C30.8687 27.6726 30.331 29.1805 29.0975 29.7705C28.7655 29.918 28.4175 30 28.0696 30Z" fill="url(#paint1_linear)"/>
    <defs>
        <linearGradient id="paint0_linear" x1="11.461" y1="0" x2="11.461" y2="30" gradientUnits="userSpaceOnUse">
            <stop stop-color="#FFCB24"/>
            <stop offset="1" stop-color="#FF4D00"/>
        </linearGradient>
        <linearGradient id="paint1_linear" x1="22.5348" y1="0" x2="22.5348" y2="30" gradientUnits="userSpaceOnUse">
            <stop stop-color="#FFCB24"/>
            <stop offset="1" stop-color="#FF4D00"/>
        </linearGradient>
    </defs>
</svg>
